<svg xmlns="http://www.w3.org/2000/svg" xmlns:xlink="http://www.w3.org/1999/xlink" width="500" zoomAndPan="magnify" viewBox="0 0 375 374.999991" height="500" preserveAspectRatio="xMidYMid meet" version="1.0"><defs><g/><clipPath id="a5b96d34a4"><path d="M 28 29 L 358 29 L 358 202.730469 L 28 202.730469 Z M 28 29 " clip-rule="nonzero"/></clipPath></defs><g clip-path="url(#a5b96d34a4)"><path fill="#efcf83" d="M 354.605469 196.230469 L 346.273438 196.230469 C 213.222656 14.613281 226.59375 32.546875 225.257812 31.035156 C 224.988281 30.722656 224.320312 30.234375 224.097656 30.144531 C 223.652344 30.011719 223.5625 29.878906 222.761719 29.878906 C 222.714844 29.878906 222.714844 29.878906 222.671875 29.878906 C 222.582031 29.878906 222.539062 29.921875 222.449219 29.921875 C 221.914062 30.011719 221.378906 30.1875 221.023438 30.410156 C 220.578125 30.679688 220.21875 30.988281 219.90625 31.480469 L 173.597656 106.691406 C 138.515625 58.046875 141.460938 61.742188 140.390625 61.253906 C 139.945312 61.03125 139.453125 60.941406 138.964844 60.941406 C 138.917969 60.941406 138.917969 60.941406 138.917969 60.941406 C 137.804688 61.117188 137.089844 61.296875 136.378906 62.140625 C 136.332031 62.230469 136.242188 62.277344 136.199219 62.320312 L 39.789062 196.230469 L 31.453125 196.230469 C 29.625 196.230469 28.109375 197.746094 28.109375 199.570312 C 28.109375 201.4375 29.625 202.90625 31.453125 202.90625 L 354.605469 202.90625 C 356.433594 202.90625 357.949219 201.4375 357.949219 199.570312 C 357.949219 197.746094 356.433594 196.230469 354.605469 196.230469 Z M 327.640625 182.125 L 265.90625 182.125 C 264.078125 182.125 262.5625 180.609375 262.5625 178.785156 C 262.5625 176.917969 264.078125 175.449219 265.90625 175.449219 L 322.78125 175.449219 Z M 161.785156 140.511719 C 159.957031 140.511719 158.441406 139.042969 158.441406 137.175781 C 158.441406 135.351562 159.957031 133.835938 161.785156 133.835938 L 184.875 133.835938 L 189.6875 140.511719 Z M 175.558594 178.785156 C 175.558594 180.609375 174.042969 182.125 172.214844 182.125 L 140.96875 182.125 C 139.097656 182.125 137.625 180.609375 137.625 178.785156 C 137.625 176.917969 139.097656 175.449219 140.96875 175.449219 L 172.214844 175.449219 C 174.042969 175.449219 175.558594 176.917969 175.558594 178.785156 Z M 144.3125 116.390625 C 144.3125 118.214844 142.796875 119.730469 140.96875 119.730469 L 126.882812 119.730469 L 128.753906 113.054688 L 140.96875 113.054688 C 142.796875 113.054688 144.3125 114.566406 144.3125 116.390625 Z M 135.753906 154.664062 C 137.582031 154.664062 139.097656 156.132812 139.097656 158.003906 C 139.097656 159.828125 137.582031 161.339844 135.753906 161.339844 L 115.25 161.339844 L 117.121094 154.664062 Z M 198.246094 182.125 C 196.375 182.125 194.902344 180.609375 194.902344 178.785156 C 194.902344 176.917969 196.375 175.449219 198.246094 175.449219 L 214.828125 175.449219 L 219.640625 182.125 Z M 208.097656 154.664062 L 239.875 154.664062 C 241.75 154.664062 243.21875 156.132812 243.21875 158.003906 C 243.21875 159.828125 241.75 161.339844 239.875 161.339844 L 212.910156 161.339844 Z M 203.503906 119.730469 L 205.289062 113.054688 L 239.875 113.054688 C 241.75 113.054688 243.21875 114.566406 243.21875 116.390625 C 243.21875 118.214844 241.75 119.730469 239.875 119.730469 Z M 297.199219 140.511719 L 276.335938 140.511719 C 274.507812 140.511719 272.996094 139.042969 272.996094 137.175781 C 272.996094 135.351562 274.507812 133.835938 276.335938 133.835938 L 292.339844 133.835938 Z M 266.753906 98.945312 L 245.089844 98.945312 C 243.265625 98.945312 241.75 97.433594 241.75 95.609375 C 241.75 93.738281 243.265625 92.269531 245.089844 92.269531 L 261.894531 92.269531 Z M 216.207031 71.441406 L 224.277344 71.441406 C 226.101562 71.441406 227.617188 72.957031 227.617188 74.78125 C 227.617188 76.648438 226.101562 78.117188 224.277344 78.117188 L 214.425781 78.117188 Z M 213.800781 54.175781 L 192.984375 133.570312 L 177.832031 112.566406 Z M 48.125 196.097656 L 130.671875 81.5 L 98.578125 196.097656 Z M 48.125 196.097656 " fill-opacity="1" fill-rule="nonzero"/></g><g fill="#ac8269" fill-opacity="1"><g transform="translate(55.663862, 281.561233)"><g><path d="M 33.035156 -48.046875 C 33.035156 -54.933594 29.296875 -58.597656 22.484375 -58.597656 L 14.28125 -58.597656 C 7.398438 -58.597656 3.664062 -54.933594 3.664062 -48.046875 L 3.664062 -10.546875 C 3.664062 -3.664062 7.398438 0 14.28125 0 L 22.484375 0 C 29.296875 0 33.035156 -3.664062 33.035156 -10.546875 L 33.035156 -18.457031 C 33.035156 -19.191406 32.59375 -19.628906 31.863281 -19.628906 L 24.535156 -19.628906 C 23.730469 -19.628906 23.363281 -19.191406 23.363281 -18.457031 L 23.363281 -12.597656 C 23.363281 -10.621094 22.339844 -9.667969 20.433594 -9.667969 L 16.625 -9.667969 C 14.722656 -9.667969 13.695312 -10.621094 13.695312 -12.597656 L 13.695312 -45.996094 C 13.695312 -47.902344 14.648438 -48.925781 16.625 -48.925781 L 20.433594 -48.925781 C 22.339844 -48.925781 23.363281 -47.902344 23.363281 -45.996094 L 23.363281 -40.136719 C 23.363281 -39.40625 23.730469 -38.964844 24.535156 -38.964844 L 31.863281 -38.964844 C 32.59375 -38.964844 33.035156 -39.40625 33.035156 -40.136719 Z M 33.035156 -48.046875 "/></g></g></g><g fill="#ac8269" fill-opacity="1"><g transform="translate(116.897606, 281.561233)"><g><path d="M 38.964844 0 C 39.84375 0 40.136719 -0.441406 39.992188 -1.246094 L 27.832031 -57.570312 C 27.6875 -58.304688 27.246094 -58.597656 26.589844 -58.597656 L 16.40625 -58.597656 C 15.746094 -58.597656 15.308594 -58.304688 15.160156 -57.570312 L 3.003906 -1.246094 C 2.785156 -0.441406 3.148438 0 3.957031 0 L 11.792969 0 C 12.453125 0 12.816406 -0.367188 12.964844 -1.027344 L 14.941406 -11.71875 L 27.980469 -11.71875 L 30.03125 -1.027344 C 30.175781 -0.367188 30.542969 0 31.203125 0 Z M 26.148438 -20.214844 L 16.773438 -20.214844 L 21.460938 -45.777344 Z M 26.148438 -20.214844 "/></g></g></g><g fill="#ac8269" fill-opacity="1"><g transform="translate(184.356935, 281.561233)"><g><path d="M 4.835938 -58.597656 C 4.027344 -58.597656 3.664062 -58.15625 3.664062 -57.425781 L 3.664062 -1.171875 C 3.664062 -0.441406 4.027344 0 4.835938 0 L 12.453125 0 C 13.183594 0 13.625 -0.441406 13.625 -1.171875 L 13.625 -57.425781 C 13.625 -58.15625 13.183594 -58.597656 12.453125 -58.597656 Z M 4.835938 -58.597656 "/></g></g></g><g fill="#ac8269" fill-opacity="1"><g transform="translate(226.181506, 281.561233)"><g><path d="M 33.765625 -48.046875 C 33.765625 -54.933594 30.105469 -58.597656 23.21875 -58.597656 L 4.835938 -58.597656 C 4.101562 -58.597656 3.664062 -58.15625 3.664062 -57.425781 L 3.664062 -1.171875 C 3.664062 -0.441406 4.101562 0 4.835938 0 L 12.453125 0 C 13.183594 0 13.625 -0.441406 13.625 -1.171875 L 13.625 -19.628906 L 18.675781 -19.628906 L 23.585938 -1.027344 C 23.730469 -0.367188 24.097656 0 24.828125 0 L 32.449219 0 C 33.253906 0 33.691406 -0.441406 33.472656 -1.320312 L 28.417969 -20.507812 C 31.933594 -22.046875 33.765625 -25.269531 33.765625 -30.175781 Z M 13.625 -29.296875 L 13.625 -48.925781 L 20.875 -48.925781 C 22.777344 -48.925781 23.804688 -47.902344 23.804688 -45.996094 L 23.804688 -32.226562 C 23.804688 -30.324219 22.777344 -29.296875 20.875 -29.296875 Z M 13.625 -29.296875 "/></g></g></g><g fill="#ac8269" fill-opacity="1"><g transform="translate(288.147665, 281.561233)"><g><path d="M 3.664062 -10.546875 C 3.664062 -3.664062 7.324219 0 14.210938 0 L 22.414062 0 C 29.296875 0 32.960938 -3.664062 32.960938 -10.546875 L 32.960938 -48.046875 C 32.960938 -54.933594 29.296875 -58.597656 22.414062 -58.597656 L 14.210938 -58.597656 C 7.324219 -58.597656 3.664062 -54.933594 3.664062 -48.046875 Z M 16.332031 -9.449219 C 14.429688 -9.449219 13.402344 -10.402344 13.402344 -12.378906 L 13.402344 -46.21875 C 13.402344 -48.121094 14.429688 -49.148438 16.332031 -49.148438 L 20.582031 -49.148438 C 22.484375 -49.148438 23.511719 -48.121094 23.511719 -46.21875 L 23.511719 -12.378906 C 23.511719 -10.402344 22.484375 -9.449219 20.582031 -9.449219 Z M 16.332031 -9.449219 "/></g></g></g><g fill="#ac8269" fill-opacity="1"><g transform="translate(25.814468, 360.549996)"><g><path d="M 3.8125 0 L 3.8125 -43.796875 L 21.34375 -43.796875 C 26.175781 -43.796875 29.804688 -42.742188 32.234375 -40.640625 C 34.671875 -38.535156 35.890625 -35.84375 35.890625 -32.5625 C 35.890625 -29.988281 35.140625 -27.90625 33.640625 -26.3125 C 32.140625 -24.71875 30.25 -23.664062 27.96875 -23.15625 L 27.96875 -22.734375 C 29.632812 -22.660156 31.195312 -22.1875 32.65625 -21.3125 C 34.125 -20.445312 35.3125 -19.238281 36.21875 -17.6875 C 37.132812 -16.132812 37.59375 -14.273438 37.59375 -12.109375 C 37.59375 -9.785156 37.019531 -7.707031 35.875 -5.875 C 34.726562 -4.050781 33.035156 -2.613281 30.796875 -1.5625 C 28.554688 -0.519531 25.796875 0 22.515625 0 Z M 13.0625 -7.5625 L 20.609375 -7.5625 C 23.203125 -7.5625 25.085938 -8.0625 26.265625 -9.0625 C 27.441406 -10.0625 28.03125 -11.378906 28.03125 -13.015625 C 28.03125 -14.828125 27.382812 -16.3125 26.09375 -17.46875 C 24.8125 -18.625 23.054688 -19.203125 20.828125 -19.203125 L 13.0625 -19.203125 Z M 13.0625 -25.46875 L 19.9375 -25.46875 C 21.832031 -25.46875 23.40625 -25.960938 24.65625 -26.953125 C 25.90625 -27.941406 26.53125 -29.300781 26.53125 -31.03125 C 26.53125 -32.613281 25.972656 -33.890625 24.859375 -34.859375 C 23.742188 -35.828125 22.15625 -36.3125 20.09375 -36.3125 L 13.0625 -36.3125 Z M 13.0625 -25.46875 "/></g></g></g><g fill="#ac8269" fill-opacity="1"><g transform="translate(85.790311, 360.549996)"><g><path d="M 3.8125 0 L 3.8125 -43.796875 L 21.078125 -43.796875 C 26.054688 -43.796875 29.914062 -42.5 32.65625 -39.90625 C 35.40625 -37.3125 36.78125 -33.835938 36.78125 -29.484375 C 36.78125 -26.492188 36.113281 -23.9375 34.78125 -21.8125 C 33.445312 -19.6875 31.535156 -18.085938 29.046875 -17.015625 L 38.34375 0 L 28.125 0 L 19.828125 -15.53125 L 13.0625 -15.53125 L 13.0625 0 Z M 13.0625 -22.96875 L 19.359375 -22.96875 C 24.617188 -22.96875 27.25 -25.140625 27.25 -29.484375 C 27.25 -33.972656 24.601562 -36.21875 19.3125 -36.21875 L 13.0625 -36.21875 Z M 13.0625 -22.96875 "/></g></g></g><g fill="#ac8269" fill-opacity="1"><g transform="translate(145.488131, 360.549996)"><g><path d="M 13.0625 -43.796875 L 13.0625 0 L 3.8125 0 L 3.8125 -43.796875 Z M 13.0625 -43.796875 "/></g></g></g><g fill="#ac8269" fill-opacity="1"><g transform="translate(182.559605, 360.549996)"><g><path d="M 42.453125 -28.46875 L 33.078125 -28.46875 C 32.722656 -30.875 31.695312 -32.765625 30 -34.140625 C 28.300781 -35.515625 26.1875 -36.203125 23.65625 -36.203125 C 20.257812 -36.203125 17.535156 -34.957031 15.484375 -32.46875 C 13.441406 -29.976562 12.421875 -26.453125 12.421875 -21.890625 C 12.421875 -17.222656 13.453125 -13.671875 15.515625 -11.234375 C 17.578125 -8.804688 20.269531 -7.59375 23.59375 -7.59375 C 26.050781 -7.59375 28.132812 -8.238281 29.84375 -9.53125 C 31.5625 -10.820312 32.640625 -12.632812 33.078125 -14.96875 L 42.453125 -14.921875 C 42.117188 -12.242188 41.160156 -9.722656 39.578125 -7.359375 C 37.992188 -4.992188 35.84375 -3.078125 33.125 -1.609375 C 30.414062 -0.140625 27.1875 0.59375 23.4375 0.59375 C 19.53125 0.59375 16.039062 -0.285156 12.96875 -2.046875 C 9.894531 -3.816406 7.46875 -6.375 5.6875 -9.71875 C 3.914062 -13.070312 3.03125 -17.128906 3.03125 -21.890625 C 3.03125 -26.671875 3.925781 -30.734375 5.71875 -34.078125 C 7.519531 -37.429688 9.957031 -39.988281 13.03125 -41.75 C 16.113281 -43.507812 19.582031 -44.390625 23.4375 -44.390625 C 26.8125 -44.390625 29.859375 -43.765625 32.578125 -42.515625 C 35.296875 -41.273438 37.519531 -39.46875 39.25 -37.09375 C 40.976562 -34.71875 42.046875 -31.84375 42.453125 -28.46875 Z M 42.453125 -28.46875 "/></g></g></g><g fill="#ac8269" fill-opacity="1"><g transform="translate(248.031639, 360.549996)"><g><path d="M 3.8125 0 L 3.8125 -43.796875 L 13.0625 -43.796875 L 13.0625 -24.484375 L 13.640625 -24.484375 L 29.40625 -43.796875 L 40.5 -43.796875 L 24.25 -24.1875 L 40.6875 0 L 29.625 0 L 17.625 -18 L 13.0625 -12.453125 L 13.0625 0 Z M 3.8125 0 "/></g></g></g><g fill="#ac8269" fill-opacity="1"><g transform="translate(309.739735, 360.549996)"><g><path d="M 27.5625 -31.203125 C 27.394531 -32.921875 26.65625 -34.257812 25.34375 -35.21875 C 24.039062 -36.175781 22.285156 -36.65625 20.078125 -36.65625 C 17.816406 -36.65625 16.078125 -36.191406 14.859375 -35.265625 C 13.648438 -34.335938 13.046875 -33.164062 13.046875 -31.75 C 13.015625 -30.1875 13.6875 -29 15.0625 -28.1875 C 16.4375 -27.382812 18.070312 -26.765625 19.96875 -26.328125 L 23.90625 -25.390625 C 26.445312 -24.816406 28.703125 -23.988281 30.671875 -22.90625 C 32.648438 -21.820312 34.203125 -20.425781 35.328125 -18.71875 C 36.460938 -17.019531 37.03125 -14.953125 37.03125 -12.515625 C 37.019531 -8.503906 35.519531 -5.3125 32.53125 -2.9375 C 29.550781 -0.5625 25.382812 0.625 20.03125 0.625 C 14.71875 0.625 10.476562 -0.585938 7.3125 -3.015625 C 4.144531 -5.441406 2.503906 -9.019531 2.390625 -13.75 L 11.359375 -13.75 C 11.515625 -11.550781 12.378906 -9.898438 13.953125 -8.796875 C 15.523438 -7.691406 17.519531 -7.140625 19.9375 -7.140625 C 22.28125 -7.140625 24.15625 -7.640625 25.5625 -8.640625 C 26.96875 -9.640625 27.675781 -10.9375 27.6875 -12.53125 C 27.675781 -14.007812 27.03125 -15.148438 25.75 -15.953125 C 24.46875 -16.753906 22.632812 -17.4375 20.25 -18 L 15.484375 -19.203125 C 11.785156 -20.085938 8.867188 -21.488281 6.734375 -23.40625 C 4.597656 -25.332031 3.535156 -27.910156 3.546875 -31.140625 C 3.535156 -33.785156 4.242188 -36.101562 5.671875 -38.09375 C 7.109375 -40.082031 9.082031 -41.628906 11.59375 -42.734375 C 14.101562 -43.835938 16.953125 -44.390625 20.140625 -44.390625 C 23.390625 -44.390625 26.226562 -43.832031 28.65625 -42.71875 C 31.09375 -41.613281 32.988281 -40.066406 34.34375 -38.078125 C 35.695312 -36.097656 36.394531 -33.804688 36.4375 -31.203125 Z M 27.5625 -31.203125 "/></g></g></g></svg>